<?xml version="1.0" encoding="utf-8" ?>
<svg baseProfile="full" height="100%" version="1.1" viewBox="0,0,1000,120" width="100%" xmlns="http://www.w3.org/2000/svg" xmlns:ev="http://www.w3.org/2001/xml-events" xmlns:xlink="http://www.w3.org/1999/xlink"><defs /><rect fill="white" height="120" width="1000" x="0" y="0" /><path d="M0,0 M432.2010803222656,45.0 L432.15155029296875,45.17759704589844 L432.0111389160156,45.71196746826172 L431.7752380371094,46.79789733886719 L431.459716796875,48.534141540527344 L431.12237548828125,50.91512680053711 L430.7876281738281,53.83186721801758 L430.45062255859375,57.098182678222656 L430.0711669921875,60.50017166137695 L429.657470703125,63.760162353515625 L429.2230529785156,66.58936309814453 L428.8740539550781,68.58621978759766 L428.661376953125,69.67564392089844 M453.49359130859375,52.78572082519531 L453.5068359375,52.726341247558594 L453.42864990234375,52.7142333984375 L453.1717529296875,52.868682861328125 L452.67327880859375,53.348838806152344 L451.94647216796875,54.27581787109375 L451.0459899902344,55.69911575317383 L450.07830810546875,57.567893981933594 L449.1424865722656,59.76552963256836 L448.3378601074219,62.08200454711914 L447.750732421875,64.28225708007812 L447.4056091308594,66.14934539794922 L447.3085632324219,67.53424072265625 L447.4559020996094,68.35723876953125 L447.84991455078125,68.62029266357422 L448.4811096191406,68.30812072753906 L449.33941650390625,67.4227066040039 L450.3446350097656,65.99040222167969 L451.414306640625,64.12376403808594 L452.4708557128906,62.00554275512695 L453.45458984375,59.86941146850586 L454.3064880371094,57.934898376464844 L455.0020751953125,56.38727951049805 L455.5146484375,55.294944763183594 L455.8240966796875,54.672874450683594 L455.9309387207031,54.51972198486328 L455.8612976074219,54.8428840637207 L455.658935546875,55.71410369873047 L455.40972900390625,57.19041442871094 L455.210205078125,59.17807388305664 L455.1213073730469,61.47212219238281 L455.1725769042969,63.801029205322266 L455.3947448730469,65.84574890136719 L455.7762145996094,67.38644409179688 L456.2818908691406,68.33518981933594 L456.7513427734375,68.76606750488281 L457.0751953125,68.86640930175781 M462.69366455078125,55.448673248291016 L462.7239990234375,55.65715408325195 L462.712646484375,56.224212646484375 L462.6099853515625,57.30729293823242 L462.3777770996094,58.937904357910156 L462.0369567871094,61.0004997253418 L461.6529541015625,63.22234344482422 L461.29962158203125,65.27237701416016 L461.0166320800781,66.8309326171875 L460.8367919921875,67.71784210205078 L460.79132080078125,67.89534759521484 L460.914794921875,67.43616485595703 L461.2562255859375,66.39395141601562 L461.8241882324219,64.84810638427734 L462.590087890625,62.89966583251953 L463.4971923828125,60.718467712402344 L464.4867248535156,58.54600524902344 L465.493408203125,56.64286804199219 L466.44964599609375,55.16400146484375 L467.29217529296875,54.20417404174805 L467.97662353515625,53.79994583129883 L468.47265625,53.95698547363281 L468.7826232910156,54.708091735839844 L468.9136962890625,56.06248092651367 L468.8709716796875,57.907108306884766 L468.70806884765625,60.03793716430664 L468.47381591796875,62.15021514892578 L468.2350769042969,63.950531005859375 L468.0437316894531,65.26948547363281 L467.9404296875,66.0549087524414 L467.9490661621094,66.29680633544922 L468.1313171386719,66.03160095214844 L468.5281066894531,65.22926330566406 L469.1912536621094,63.91157150268555 L470.0948486328125,62.17865753173828 L471.19781494140625,60.239784240722656 L472.41278076171875,58.3362922668457 L473.6556091308594,56.732078552246094 L474.82696533203125,55.55747985839844 L475.8486022949219,54.849178314208984 L476.6454772949219,54.5492057800293 L477.1944580078125,54.60784149169922 L477.5155029296875,55.013885498046875 L477.6521301269531,55.82204818725586 L477.6419982910156,57.05283737182617 L477.51287841796875,58.631935119628906 L477.318603515625,60.39959716796875 L477.10137939453125,62.157779693603516 L476.9550476074219,63.74436950683594 L476.94354248046875,65.05205535888672 L477.090576171875,66.03375244140625 L477.2930908203125,66.64398956298828 L477.47125244140625,66.93954467773438 M497.4644775390625,53.22483825683594 L497.47869873046875,53.177398681640625 L497.4658203125,53.205387115478516 L497.4012756347656,53.45487976074219 L497.279541015625,54.11280059814453 L497.1226806640625,55.295562744140625 L496.9568176269531,57.02840042114258 L496.7953796386719,59.221229553222656 L496.6466064453125,61.669376373291016 L496.532470703125,64.09357452392578 L496.48333740234375,66.21556854248047 L496.5086364746094,67.8283462524414 L496.64300537109375,68.8478012084961 L496.90740966796875,69.29257202148438 L497.3480224609375,69.21839904785156 L498.0065002441406,68.63330078125 L498.86981201171875,67.5142822265625 L499.84326171875,65.88412475585938 L500.8329772949219,63.84779357910156 L501.74920654296875,61.5855598449707 L502.57684326171875,59.31782531738281 L503.32861328125,57.21678924560547 L504.00823974609375,55.41455078125 L504.5813293457031,54.00418472290039 L505.00933837890625,53.025596618652344 L505.2746887207031,52.454978942871094 L505.41131591796875,52.211265563964844 L505.4642639160156,52.158294677734375 L505.47967529296875,52.18023681640625 M507.4056701660156,61.04253005981445 L507.95599365234375,60.79301071166992 L508.8330993652344,60.33186721801758 L509.92547607421875,59.67089080810547 L511.001953125,58.8808708190918 L511.9896240234375,57.99528503417969 L512.8181762695312,57.044097900390625 L513.4165649414062,56.058345794677734 L513.7074584960938,55.10298156738281 L513.6422119140625,54.275390625 L513.2197265625,53.686737060546875 L512.4957275390625,53.467227935791016 L511.5725402832031,53.714393615722656 L510.555908203125,54.494720458984375 L509.56689453125,55.807159423828125 L508.6999206542969,57.558631896972656 L508.04656982421875,59.58844757080078 L507.67523193359375,61.70473861694336 L507.6260986328125,63.69328308105469 L507.8951721191406,65.41109466552734 L508.5148010253906,66.68798828125 L509.4509582519531,67.40719604492188 L510.64190673828125,67.5442123413086 L511.72772216796875,67.34060668945312 L512.4740600585938,67.0409927368164 M519.8740844726562,54.48894500732422 L519.9852905273438,54.295352935791016 L520.052978515625,54.24983215332031 L519.97998046875,54.61536407470703 L519.6896362304688,55.645782470703125 L519.2196044921875,57.30011749267578 L518.6422119140625,59.35417556762695 L518.046142578125,61.449920654296875 L517.5005493164062,63.28588104248047 L517.0548095703125,64.64656066894531 L516.751220703125,65.47959899902344 L516.6148071289062,65.79070281982422 L516.656005859375,65.6039810180664 L516.8848876953125,64.8790054321289 L517.3302001953125,63.60205841064453 L517.9923706054688,61.84569549560547 L518.8670654296875,59.80091094970703 L519.9397583007812,57.72943115234375 L521.1621704101562,55.894927978515625 L522.4496459960938,54.460174560546875 L523.7265625,53.520023345947266 L524.89794921875,53.11652755737305 L525.8889770507812,53.27351760864258 L526.6719970703125,53.994632720947266 L527.2184448242188,55.26140594482422 L527.5173950195312,56.98643112182617 L527.5950927734375,59.010948181152344 L527.4837646484375,61.113407135009766 L527.2901000976562,63.07155227661133 L527.1392822265625,64.68214416503906 L527.1112060546875,65.83527374267578 L527.180419921875,66.50688171386719 L527.2835693359375,66.79714965820312 M537.466552734375,56.296112060546875 L537.5523681640625,55.9886474609375 L537.5154418945312,55.53245544433594 L537.226806640625,55.049339294433594 L536.574462890625,54.756309509277344 L535.6029052734375,54.78864288330078 L534.4265747070312,55.236244201660156 L533.2259521484375,56.118953704833984 L532.150390625,57.380001068115234 L531.3568725585938,58.87977981567383 L530.9140014648438,60.42699432373047 L530.8370361328125,61.83241271972656 L531.06591796875,62.91941833496094 L531.5391845703125,63.5771484375 L532.203125,63.73611831665039 L533.0020751953125,63.3682861328125 L533.8758544921875,62.49424743652344 L534.7657470703125,61.21746063232422 L535.5810546875,59.726078033447266 L536.258056640625,58.284786224365234 L536.7698364257812,57.10158920288086 L537.1084594726562,56.310951232910156 L537.3153686523438,55.98445510864258 L537.4362182617188,56.1628303527832 L537.494140625,56.91017532348633 L537.50732421875,58.27867889404297 L537.4716796875,60.1937370300293 L537.3679809570312,62.50418472290039 L537.1800537109375,65.0346450805664 L536.887939453125,67.61772155761719 L536.4798583984375,70.1138916015625 L535.9546508789062,72.3707275390625 L535.3276977539062,74.21530151367188 L534.6207885742188,75.5042724609375 L533.8550415039062,76.18014526367188 L533.0715942382812,76.27796936035156 L532.3256225585938,75.87467956542969 L531.6824951171875,75.045654296875 L531.2530517578125,73.88518524169922 L531.1360473632812,72.46903991699219 L531.4178466796875,70.88368225097656 L532.138671875,69.21553802490234 L533.2730102539062,67.53914642333984 L534.750732421875,65.9080581665039 L536.4887084960938,64.37593078613281 L538.3817749023438,62.939029693603516 L540.3389892578125,61.57687759399414 L542.245849609375,60.24909591674805 L543.9774169921875,58.94114685058594 L545.4259033203125,57.67403030395508 L546.5118408203125,56.50295639038086 L547.1978149414062,55.47807312011719 L547.4979248046875,54.64710998535156 L547.4367065429688,54.04581832885742 L547.0491943359375,53.71941375732422 L546.3727416992188,53.723846435546875 L545.4599609375,54.112815856933594 L544.3963623046875,54.9133186340332 L543.30908203125,56.104644775390625 L542.3262329101562,57.61088180541992 L541.5707397460938,59.300045013427734 L541.117431640625,61.017578125 L541.0015869140625,62.614566802978516 L541.242431640625,63.969886779785156 L541.8352661132812,64.99286651611328 L542.7564697265625,65.61202239990234 L543.9747924804688,65.77268981933594 L545.4221801757812,65.46314239501953 L547.015869140625,64.72285461425781 L548.6712036132812,63.64127731323242 L550.2838745117188,62.32699966430664 L551.781982421875,60.88691711425781 L553.1114501953125,59.427276611328125 L554.2186279296875,58.06321716308594 L555.0753173828125,56.89611053466797 L555.653076171875,55.985862731933594 L555.9197387695312,55.349388122558594 L555.8615112304688,54.96853256225586 L555.4617919921875,54.83118438720703 L554.7236328125,54.96872329711914 L553.7018432617188,55.42347717285156 L552.4880981445312,56.21718978881836 L551.2164306640625,57.34204864501953 L550.029296875,58.724849700927734 L549.0524291992188,60.24461364746094 L548.3704223632812,61.751319885253906 L548.0171508789062,63.086097717285156 L547.9893798828125,64.11910247802734 L548.26123046875,64.76712036132812 L548.812744140625,64.97940063476562 L549.6309204101562,64.73831939697266 L550.6682739257812,64.040283203125 L551.83056640625,62.90843963623047 L553.01611328125,61.43954086303711 L554.1043701171875,59.794891357421875 L555.0049438476562,58.17445373535156 L555.675048828125,56.77738952636719 L556.117919921875,55.73369216918945 L556.347900390625,55.07037353515625 L556.4300537109375,54.77741241455078 L556.3945922851562,54.84689712524414 L556.2452392578125,55.30552673339844 L555.9950561523438,56.18524932861328 L555.694580078125,57.45545196533203 L555.412841796875,58.9985237121582 L555.251220703125,60.62324905395508 L555.25244140625,62.1328239440918 L555.4205932617188,63.378562927246094 L555.7277221679688,64.2575454711914 L556.1533203125,64.69669342041016 L556.7008056640625,64.65605926513672 L557.3829345703125,64.11563110351562 L558.1844482421875,63.10260772705078 L559.09033203125,61.71567153930664 L560.044189453125,60.11042404174805 L560.9893798828125,58.458274841308594 L561.8609619140625,56.9277458190918 L562.6055908203125,55.663970947265625 L563.1768798828125,54.73890686035156 L563.5687866210938,54.184146881103516 L563.7691040039062,54.01579666137695 L563.7864990234375,54.25460433959961 L563.6160888671875,54.93684387207031 L563.2784423828125,56.07456588745117 L562.8058471679688,57.57345962524414 L562.2679443359375,59.25040817260742 L561.7425537109375,60.87490463256836 L561.2992553710938,62.255592346191406 L560.9637451171875,63.28828430175781 L560.7545776367188,63.94411849975586 L560.6688842773438,64.20738220214844 L560.7257080078125,64.05824279785156 L560.984375,63.47563552856445 L561.4846801757812,62.475677490234375 L562.22216796875,61.149192810058594 L563.1842041015625,59.65189743041992 L564.30078125,58.14181900024414 L565.500732421875,56.76885986328125 L566.7149047851562,55.64373779296875 L567.8612670898438,54.83646774291992 L568.8626098632812,54.38220977783203 L569.6826782226562,54.31503677368164 L570.2784423828125,54.64889907836914 L570.647216796875,55.399085998535156 L570.79150390625,56.53114700317383 L570.7389526367188,57.96424102783203 L570.538330078125,59.553585052490234 L570.2728881835938,61.15586853027344 L570.0562744140625,62.61628723144531 L569.9963989257812,63.8072509765625 L570.1593017578125,64.64114379882812 L570.42724609375,65.1095199584961 L570.6715087890625,65.29170227050781 M579.10302734375,54.982337951660156 L578.987060546875,54.84783935546875 L578.6801147460938,54.69867706298828 L578.1229248046875,54.64178466796875 L577.3258666992188,54.81666564941406 L576.3712768554688,55.292633056640625 L575.3768310546875,56.080894470214844 L574.4542236328125,57.13951873779297 L573.6905517578125,58.392757415771484 L573.163818359375,59.738460540771484 L572.93115234375,61.06634521484375 L573.0371704101562,62.282264709472656 L573.5025024414062,63.30018997192383 L574.3114013671875,64.04913330078125 L575.4144897460938,64.47911071777344 L576.7547607421875,64.55543518066406 L578.254638671875,64.26978302001953 L579.837158203125,63.651161193847656 L581.4313354492188,62.73371887207031 L582.9752807617188,61.56309509277344 L584.39599609375,60.2016487121582 L585.6162109375,58.72700500488281 L586.5501098632812,57.2432975769043 L587.1395874023438,55.879310607910156 L587.3712158203125,54.7436637878418 L587.282958984375,53.9197883605957 L586.9055786132812,53.446754455566406 L586.2808227539062,53.3508415222168 L585.444580078125,53.638282775878906 L584.4596557617188,54.31498336791992 L583.4404296875,55.35396194458008 L582.5413818359375,56.674095153808594 L581.8802490234375,58.14045333862305 L581.561767578125,59.62356948852539 L581.6172485351562,60.98896026611328 L582.02392578125,62.14399337768555 L582.7533569335938,63.02728271484375 L583.75830078125,63.58897399902344 L584.9663696289062,63.80392837524414 L586.311767578125,63.70357131958008 L587.7158203125,63.27985382080078 L589.0680541992188,62.58018493652344 L590.2825927734375,61.68815231323242 L591.16943359375,60.879234313964844 L591.6749267578125,60.32611083984375 M597.78369140625,63.487220764160156 L597.812744140625,63.48324966430664 L597.8408203125,63.44807434082031 L597.8665161132812,63.385223388671875 L597.8838500976562,63.3052864074707 L597.909423828125,63.23347091674805 L597.94287109375,63.1924934387207 L597.97119140625,63.17382049560547 " fill="none" stroke="black" stroke-linecap="round" stroke-width="2" /></svg>